<svg width="24" height="24" viewBox="0 0 24 24" fill="none" xmlns="http://www.w3.org/2000/svg">
<path d="M1.5 3.75V20.25H22.5V3.75H1.5ZM3 5.25H21V15.6797L17.0391 11.6953L16.5 11.1562L13.1016 14.5547L8.78906 10.1953L8.25 9.65625L3 14.9062V5.25ZM18 6.75C17.1709 6.75 16.5 7.4209 16.5 8.25C16.5 9.0791 17.1709 9.75 18 9.75C18.8291 9.75 19.5 9.0791 19.5 8.25C19.5 7.4209 18.8291 6.75 18 6.75ZM8.25 11.7891L15.1406 18.75H3V17.0391L8.25 11.7891ZM16.5 13.2891L21 17.7891V18.75H17.2734L14.1562 15.6094L16.5 13.2891Z" fill="currentColor"/>
</svg>
