<svg width="33" height="32" viewBox="0 0 33 32" fill="none" xmlns="http://www.w3.org/2000/svg">
<path d="M13.7029 3L13.5466 3.8125L12.9529 6.78125C11.9998 7.15625 11.1404 7.68359 10.3591 8.3125L7.45288 7.3125L6.67163 7.0625L6.26538 7.78125L4.26538 11.2188L3.85913 11.9375L4.45288 12.4688L6.70288 14.4375C6.62085 14.9492 6.51538 15.4609 6.51538 16C6.51538 16.5391 6.62085 17.0508 6.70288 17.5625L4.45288 19.5312L3.85913 20.0625L4.26538 20.7812L6.26538 24.2188L6.67163 24.9375L7.45288 24.6875L10.3591 23.6875C11.1404 24.3164 11.9998 24.8438 12.9529 25.2188L13.5466 28.1875L13.7029 29H19.3279L19.4841 28.1875L20.0779 25.2188C21.031 24.8438 21.8904 24.3164 22.6716 23.6875L25.5779 24.6875L26.3591 24.9375L26.7654 24.2188L28.7654 20.7812L29.1716 20.0625L28.5779 19.5312L26.3279 17.5625C26.4099 17.0508 26.5154 16.5391 26.5154 16C26.5154 15.4609 26.4099 14.9492 26.3279 14.4375L28.5779 12.4688L29.1716 11.9375L28.7654 11.2188L26.7654 7.78125L26.3591 7.0625L25.5779 7.3125L22.6716 8.3125C21.8904 7.68359 21.031 7.15625 20.0779 6.78125L19.4841 3.8125L19.3279 3H13.7029ZM15.3279 5H17.7029L18.2029 7.59375L18.3279 8.1875L18.8904 8.375C20.0271 8.73047 21.0583 9.33203 21.9216 10.125L22.3591 10.5312L22.9216 10.3438L25.4529 9.46875L26.6404 11.5L24.6404 13.2812L24.1716 13.6562L24.3279 14.25C24.4568 14.8203 24.5154 15.4023 24.5154 16C24.5154 16.5977 24.4568 17.1797 24.3279 17.75L24.2029 18.3438L24.6404 18.7188L26.6404 20.5L25.4529 22.5312L22.9216 21.6562L22.3591 21.4688L21.9216 21.875C21.0583 22.668 20.0271 23.2695 18.8904 23.625L18.3279 23.8125L18.2029 24.4062L17.7029 27H15.3279L14.8279 24.4062L14.7029 23.8125L14.1404 23.625C13.0037 23.2695 11.9724 22.668 11.1091 21.875L10.6716 21.4688L10.1091 21.6562L7.57788 22.5312L6.39038 20.5L8.39038 18.7188L8.85913 18.3438L8.70288 17.75C8.57398 17.1797 8.51538 16.5977 8.51538 16C8.51538 15.4023 8.57398 14.8203 8.70288 14.25L8.85913 13.6562L8.39038 13.2812L6.39038 11.5L7.57788 9.46875L10.1091 10.3438L10.6716 10.5312L11.1091 10.125C11.9724 9.33203 13.0037 8.73047 14.1404 8.375L14.7029 8.1875L14.8279 7.59375L15.3279 5ZM16.5154 11C13.7654 11 11.5154 13.25 11.5154 16C11.5154 18.75 13.7654 21 16.5154 21C19.2654 21 21.5154 18.75 21.5154 16C21.5154 13.25 19.2654 11 16.5154 11ZM16.5154 13C18.1833 13 19.5154 14.332 19.5154 16C19.5154 17.668 18.1833 19 16.5154 19C14.8474 19 13.5154 17.668 13.5154 16C13.5154 14.332 14.8474 13 16.5154 13Z" fill="#595959"/>
</svg>
