<svg width="276" height="50" viewBox="0 0 276 50" fill="none" xmlns="http://www.w3.org/2000/svg">
<path d="M90.8441 24.6774V10.5724L99.8519 10.6375C108.591 10.7007 108.901 10.7153 110.259 11.1274C113.701 12.1727 116.121 14.2377 117.077 16.9476C118.677 21.4802 116.92 26.5221 113.012 28.6144L111.954 29.1811L115.042 33.6551C116.741 36.1157 118.211 38.2761 118.309 38.4557C118.477 38.7634 118.179 38.7825 113.189 38.7825H107.891L105.258 34.7686L102.625 30.7548H101.495H100.365V34.7686V38.7825H95.6047H90.8441V24.6774ZM106.373 23.815C108.409 23.205 109.026 20.3403 107.391 19.0926C106.58 18.4744 105.284 18.2465 102.58 18.2465H100.365V21.1402V24.0339H103.004C104.482 24.0339 105.964 23.9376 106.373 23.815Z" fill="#1C2638"/>
<path d="M119.902 38.2734C119.972 37.9935 120.423 36.2503 120.904 34.3996L121.779 31.0348L130.709 30.9863C140.524 30.933 140.317 30.9584 140.317 29.8057C140.317 28.7057 140.291 28.7012 133.888 28.7012C130.675 28.7012 127.594 28.6154 127.042 28.5106C122.939 27.7326 119.791 23.9249 119.783 19.7326C119.776 15.8031 122.339 12.3073 126.074 11.154C127.224 10.7987 127.801 10.7789 136.976 10.7789H146.665V14.6994V18.6199H137.521H128.377L128.073 19.0852C127.671 19.6983 127.861 20.445 128.48 20.6801C128.748 20.782 131.531 20.8602 134.896 20.8602C141.668 20.8602 142.291 20.959 144.402 22.3688C145.884 23.3584 146.746 24.3681 147.576 26.0875C148.241 27.467 148.251 27.522 148.251 29.8213C148.251 32.122 148.242 32.1747 147.574 33.5551C146.736 35.2886 145.795 36.3885 144.351 37.3218C142.073 38.794 142.184 38.7824 130.306 38.7824H119.774L119.902 38.2734Z" fill="#1C2638"/>
<path d="M157.119 28.6078V18.4332H152.919H148.718V14.5127V10.5922H161.786H174.855V14.5127V18.4332H170.654H166.454V28.6078V38.7824H161.786H157.119V28.6078Z" fill="#1C2638"/>
<path d="M186.672 38.8802C185.725 38.6353 184.177 38.036 183.219 37.5433C181.792 36.8096 181.165 36.3329 179.705 34.8694C176.699 31.857 175.612 29.4129 175.46 25.325C175.358 22.5747 175.724 20.7214 176.804 18.5212C179.417 13.1987 184.741 9.98256 190.91 10.0001C194.286 10.0096 197.015 10.7541 199.614 12.3741C206.915 16.9246 208.652 26.7257 203.354 33.4822C201.16 36.2815 197.861 38.3177 194.299 39.0728C192.284 39.4999 188.722 39.4099 186.672 38.8802ZM192.287 31.0331C197.93 29.5633 198.624 21.4139 193.337 18.7049C192.382 18.2155 190.085 18.1185 188.885 18.517C187.619 18.9374 186.211 20.2269 185.552 21.5691C185.076 22.5392 185.029 22.816 185.029 24.6873C185.029 26.5667 185.073 26.8234 185.542 27.7141C185.825 28.2494 186.302 28.968 186.603 29.311C187.501 30.3333 189.348 31.1827 190.918 31.2944C191.076 31.3056 191.692 31.1881 192.287 31.0331Z" fill="#1C2638"/>
<path d="M220.967 39.3139C219.066 39.1679 217.385 38.7527 215.819 38.0425C208.395 34.6767 205.259 25.6346 208.921 18.1531C210.377 15.1762 212.562 12.9623 215.46 11.5266C217.73 10.4019 219.497 10.0068 222.277 10.0017C226.56 9.99392 229.812 11.153 232.469 13.6338C233.698 14.7817 235.495 17.0444 235.313 17.214C235.278 17.2464 233.528 18.2878 231.423 19.5281L227.598 21.7833L227.27 21.1443C226.85 20.3268 225.79 19.296 224.965 18.9046C223.977 18.4359 222.383 18.2358 221.28 18.442C219.491 18.7762 217.888 20.3342 217.291 22.3194C216.834 23.8357 216.891 26.064 217.423 27.4877C218.009 29.0565 219.428 30.4356 220.894 30.8621C222.181 31.236 223.798 31.1241 224.848 30.5883C225.52 30.2456 226.89 28.9174 227.542 27.9775L227.85 27.5339L231.381 29.523C233.323 30.6171 235.054 31.6155 235.226 31.7417C235.514 31.9523 235.496 32.0402 235.006 32.8098C233.762 34.7635 231.471 36.7986 229.275 37.8988C226.954 39.0619 224.074 39.5526 220.967 39.3139Z" fill="#1C2638"/>
<path d="M236.836 24.6873V10.5922H241.5H246.165L246.214 15.9577L246.264 21.3233L250.371 15.9577L254.478 10.5922L259.857 10.5922C262.815 10.5922 265.195 10.6568 265.146 10.7358C265.097 10.8148 262.911 13.5635 260.287 16.844C255.899 22.3287 255.535 22.8391 255.76 23.1879C257.32 25.6053 265.4 38.5818 265.4 38.6701C265.4 38.7349 262.909 38.7657 259.865 38.7385L254.331 38.6891L251.587 34.3302C250.077 31.9328 248.795 29.9585 248.738 29.943C248.68 29.9274 248.081 30.5867 247.406 31.4082L246.179 32.9017L246.175 35.8421L246.171 38.7824H241.503H236.836V24.6873Z" fill="#1C2638"/>
<path d="M64.9704 38.2962C66.8378 33.4742 69.0013 27.687 69.0013 27.514C69.0013 27.3892 66.804 25.8664 64.1183 24.13C61.4327 22.3935 59.3295 20.9415 59.4445 20.9032C59.5595 20.8648 62.1899 20.9693 65.2898 21.1353C68.3897 21.3012 70.9828 21.3703 71.0521 21.2886C71.1215 21.207 71.8411 18.6426 72.6513 15.59C73.4614 12.5374 74.1776 10.1011 74.2426 10.176C74.3077 10.2509 75.0141 12.7485 75.8123 15.7262C76.6106 18.7039 77.3227 21.2058 77.3949 21.2861C77.467 21.3663 79.975 21.2972 82.9681 21.1326C85.9612 20.968 88.5867 20.8603 88.8025 20.8934C89.0805 20.936 87.7697 21.879 84.3078 24.1273C81.6198 25.8728 79.3989 27.343 79.3724 27.3943C79.3459 27.4457 80.2676 29.924 81.4205 32.9017C82.5735 35.8794 83.492 38.344 83.4616 38.3786C83.4312 38.4132 81.4912 36.901 79.1506 35.0182C76.81 33.1354 74.7406 31.482 74.5519 31.344C74.1573 31.0554 74.5976 30.7407 68.6121 35.5892C66.5338 37.2726 64.895 38.4908 64.9704 38.2962Z" fill="#1C2638"/>
<path d="M47.5319 28.6078V18.4332H43.238H38.9441V14.5127V10.5922H52.1058H65.2675V14.5127V18.4332H61.0669H56.8664V28.6078V38.7824H52.1991H47.5319V28.6078Z" fill="#1C2638"/>
<path d="M10.1273 38.269C10.1973 37.9867 10.6477 36.2434 11.128 34.3952L12.0014 31.0348L20.9329 30.9863C30.7504 30.933 30.5431 30.9584 30.5431 29.8057C30.5431 28.7057 30.5167 28.7012 24.1144 28.7012C20.9013 28.7012 17.8199 28.6172 17.2668 28.5147C13.9166 27.8935 11.0125 25.0649 10.1964 21.6281C9.87294 20.2658 10.045 17.8834 10.5663 16.5057C11.4811 14.0882 13.7894 11.9293 16.2827 11.1592C17.4545 10.7973 17.9826 10.7789 27.2023 10.7789H36.8905V14.6994V18.6199H27.7533H18.616L18.3254 19.0348C17.9648 19.5497 17.9575 19.9361 18.2995 20.4044C18.5505 20.748 18.9066 20.7718 25.1604 20.8634C31.5179 20.9564 31.7959 20.9757 32.8439 21.3954C39.622 24.1097 40.6292 33.4023 34.5704 37.3247C32.3017 38.7935 32.4079 38.7824 20.5319 38.7824H10L10.1273 38.269Z" fill="#1C2638"/>
</svg>
